<svg xmlns="http://www.w3.org/2000/svg" version="1.1" xmlns:xlink="http://www.w3.org/1999/xlink" xmlns:svgjs="http://svgjs.dev/svgjs" width="1000" height="1000" viewBox="0 0 1000 1000"><rect width="1000" height="1000" fill="#ffffff"></rect><g transform="matrix(0.7,0,0,0.7,150.61875623005415,146.08680161943317)"><svg viewBox="0 0 244 247" data-background-color="#ffffff" preserveAspectRatio="xMidYMid meet" height="1012" width="1000" xmlns="http://www.w3.org/2000/svg" xmlns:xlink="http://www.w3.org/1999/xlink"><g id="tight-bounds" transform="matrix(1,0,0,1,-0.215680743047443,-0.09999999999999432)"><svg viewBox="0 0 244.43135999999998 247.2" height="247.2" width="244.43135999999998"><g><svg></svg></g><g><svg viewBox="0 0 244.43135999999998 247.2" height="247.2" width="244.43135999999998"><g transform="matrix(1,0,0,1,0,64.07463394422311)"><svg viewBox="0 0 244.43135999999998 119.05073211155378" height="119.05073211155378" width="244.43135999999998"><g><svg viewBox="0 0 244.43135999999998 119.05073211155378" height="119.05073211155378" width="244.43135999999998"><g><svg viewBox="0 0 244.43135999999998 119.05073211155378" height="119.05073211155378" width="244.43135999999998"><g><svg viewBox="0 0 244.43135999999998 119.05073211155378" height="119.05073211155378" width="244.43135999999998"><g id="textblocktransform"><svg viewBox="0 0 244.43135999999998 119.05073211155378" height="119.05073211155378" width="244.43135999999998" id="textblock"><g><svg viewBox="0 0 244.43135999999998 119.05073211155378" height="119.05073211155378" width="244.43135999999998"><g transform="matrix(1,0,0,1,0,0)"><svg width="244.43135999999998" viewBox="3 -38.849998474121094 100.38999938964844 48.89999771118164" height="119.05073211155378" data-palette-color="#124948"><path d="M25.35-10.4L25.35-10.4Q25.35-8.05 24.55-6.05 23.75-4.05 22.3-2.6 20.85-1.15 18.82-0.33 16.8 0.5 14.4 0.5L14.4 0.5Q13.15 0.5 12.03 0.23 10.9-0.05 9.95-0.53 9-1 8.3-1.58 7.6-2.15 7.25-2.75L7.25-2.75Q7.25-2.5 7.28-2.23 7.3-1.95 7.3-1.7L7.3-1.7 7.3 0 3 0 3-38.85 7.3-38.85 7.3-17.85Q7.7-18.45 8.38-19.07 9.05-19.7 9.98-20.23 10.9-20.75 12.05-21.1 13.2-21.45 14.6-21.45L14.6-21.45Q17-21.45 18.98-20.68 20.95-19.9 22.38-18.48 23.8-17.05 24.58-15 25.35-12.95 25.35-10.4ZM20.7-10.5L20.7-10.5Q20.7-11.95 20.25-13.18 19.8-14.4 18.95-15.3 18.1-16.2 16.9-16.73 15.7-17.25 14.2-17.25L14.2-17.25Q12.7-17.25 11.43-16.73 10.15-16.2 9.25-15.3 8.35-14.4 7.83-13.18 7.3-11.95 7.3-10.5L7.3-10.5Q7.3-9.05 7.83-7.8 8.35-6.55 9.25-5.65 10.15-4.75 11.43-4.23 12.7-3.7 14.2-3.7L14.2-3.7Q15.7-3.7 16.9-4.23 18.1-4.75 18.95-5.68 19.8-6.6 20.25-7.83 20.7-9.05 20.7-10.5ZM49.45-20.9L49.45 0.45 45.85 0.45 45.35-5.35Q44.2-2.8 42.12-1.15 40.05 0.5 36.85 0.5L36.85 0.5Q33.65 0.5 31.77-1.23 29.9-2.95 29.8-5.75L29.8-5.75 29.8-20.9 34.05-20.9 34.05-7.65Q34.15-6.1 35.17-5 36.2-3.9 38.35-3.75L38.35-3.75Q39.85-3.75 41.1-4.28 42.35-4.8 43.25-5.7 44.15-6.6 44.65-7.85 45.15-9.1 45.15-10.6L45.15-10.6 45.15-20.9 49.45-20.9ZM73.15-10.5L73.15-10.5Q73.15-11.95 72.7-13.18 72.25-14.4 71.4-15.3 70.55-16.2 69.35-16.73 68.15-17.25 66.65-17.25L66.65-17.25Q65.15-17.25 63.87-16.73 62.6-16.2 61.7-15.3 60.8-14.4 60.27-13.18 59.75-11.95 59.75-10.5L59.75-10.5Q59.75-9.05 60.27-7.8 60.8-6.55 61.7-5.65 62.6-4.75 63.87-4.23 65.15-3.7 66.65-3.7L66.65-3.7Q68.15-3.7 69.35-4.23 70.55-4.75 71.4-5.68 72.25-6.6 72.7-7.83 73.15-9.05 73.15-10.5ZM77.8-10.4L77.8-10.4Q77.8-8.05 77-6.05 76.2-4.05 74.75-2.6 73.3-1.15 71.27-0.33 69.25 0.5 66.85 0.5L66.85 0.5Q65.6 0.5 64.47 0.23 63.35-0.05 62.4-0.53 61.45-1 60.75-1.58 60.05-2.15 59.7-2.75L59.7-2.75Q59.7-2.5 59.72-2.23 59.75-1.95 59.75-1.7L59.75-1.7 59.75 10.05 55.45 10.05 55.45-20.9 59.6-20.9Q59.6-20.3 59.67-19.43 59.75-18.55 59.75-17.85L59.75-17.85Q60.15-18.45 60.82-19.07 61.5-19.7 62.42-20.23 63.35-20.75 64.5-21.1 65.65-21.45 67.05-21.45L67.05-21.45Q69.45-21.45 71.42-20.68 73.4-19.9 74.82-18.48 76.25-17.05 77.02-15 77.8-12.95 77.8-10.4ZM81.04-10.45L81.04-10.45Q81.04-12.9 81.87-14.93 82.69-16.95 84.14-18.4 85.59-19.85 87.57-20.65 89.54-21.45 91.84-21.45L91.84-21.45Q93.39-21.45 94.62-21.08 95.84-20.7 96.72-20.18 97.59-19.65 98.19-19 98.79-18.35 99.09-17.85L99.09-17.85 99.09-38.85 103.39-38.85 103.39 0 99.09 0 99.09-1.55Q99.09-1.85 99.14-2.23 99.19-2.6 99.19-2.85L99.19-2.85Q98.69-2.25 98.02-1.68 97.34-1.1 96.44-0.6 95.54-0.1 94.37 0.2 93.19 0.5 91.69 0.5L91.69 0.5Q89.19 0.5 87.22-0.38 85.24-1.25 83.87-2.73 82.49-4.2 81.77-6.2 81.04-8.2 81.04-10.45ZM85.34-10.5L85.34-10.5Q85.34-9.05 85.87-7.8 86.39-6.55 87.29-5.65 88.19-4.75 89.44-4.23 90.69-3.7 92.19-3.7L92.19-3.7Q93.69-3.7 94.97-4.23 96.24-4.75 97.17-5.68 98.09-6.6 98.59-7.83 99.09-9.05 99.09-10.5L99.09-10.5Q99.09-11.95 98.59-13.18 98.09-14.4 97.17-15.3 96.24-16.2 94.97-16.73 93.69-17.25 92.19-17.25L92.19-17.25Q90.69-17.25 89.44-16.73 88.19-16.2 87.29-15.3 86.39-14.4 85.87-13.18 85.34-11.95 85.34-10.5Z" opacity="1" transform="matrix(1,0,0,1,0,0)" fill="#124948" class="undefined-text-0" data-fill-palette-color="primary" id="text-0"></path></svg></g></svg></g></svg></g></svg></g><g></g></svg></g></svg></g></svg></g><path d="M0 58.075L0 1 244.431 1 244.431 58.075 233.695 58.075 233.695 11.736 10.736 11.736 10.736 58.075 0 58.075M0 189.125L0 246.2 244.431 246.2 244.431 189.125 233.695 189.125 233.695 235.464 10.736 235.464 10.736 189.125 0 189.125" fill="#124948" stroke="transparent" data-fill-palette-color="primary"></path></svg></g><defs></defs></svg><rect width="244.43135999999998" height="247.2" fill="none" stroke="none" visibility="hidden"></rect></g></svg></g></svg>